<?xml version="1.0" standalone="no"?>
<!DOCTYPE svg PUBLIC "-//W3C//DTD SVG 20010904//EN"
 "http://www.w3.org/TR/2001/REC-SVG-20010904/DTD/svg10.dtd">
<svg version="1.0" xmlns="http://www.w3.org/2000/svg"
 width="1024.000000pt" height="1024.000000pt" viewBox="0 0 1024.000000 1024.000000"
 preserveAspectRatio="xMidYMid meet">

<g transform="translate(0.000000,1024.000000) scale(0.100000,-0.100000)"
fill="#000000" stroke="none">
<path d="M5020 8928 c-13 -7 -35 -29 -47 -47 l-23 -34 0 -652 0 -652 23 -34
c42 -62 108 -76 168 -36 19 13 39 38 46 57 9 26 12 205 12 668 1 674 1 673
-47 716 -27 23 -99 31 -132 14z"/>
<path d="M6881 8453 c-28 -16 -83 -104 -357 -578 -178 -308 -326 -574 -330
-592 -15 -78 75 -158 150 -133 18 6 43 21 55 34 12 12 166 272 342 577 309
534 320 556 316 598 -9 86 -100 135 -176 94z"/>
<path d="M3170 8403 c-43 -22 -73 -76 -66 -120 5 -33 622 -1111 659 -1151 11
-12 37 -27 57 -33 76 -23 156 45 146 123 -5 48 -640 1151 -674 1174 -37 24
-83 27 -122 7z"/>
<path d="M8280 7123 c-40 -17 -1108 -638 -1127 -655 -75 -70 -32 -191 73 -204
37 -5 74 15 604 321 311 179 573 335 582 346 41 48 27 139 -25 174 -28 18 -84
28 -107 18z"/>
<path d="M1835 7031 c-11 -5 -31 -21 -45 -36 -30 -32 -35 -106 -9 -145 18 -27
1113 -664 1161 -675 58 -14 125 30 141 93 8 32 -9 85 -35 110 -13 11 -270 163
-572 337 -551 318 -591 338 -641 316z"/>
<path d="M4897 6865 c-724 -99 -1316 -625 -1491 -1326 -125 -499 -33 -1010
258 -1439 75 -111 249 -299 351 -380 306 -242 656 -372 1045 -387 1029 -41
1878 808 1837 1837 -15 389 -145 739 -387 1045 -137 173 -379 369 -578 469
-327 164 -691 227 -1035 181z m448 -246 c648 -85 1182 -609 1292 -1269 20
-125 20 -365 0 -490 -109 -653 -614 -1158 -1267 -1267 -125 -20 -365 -20 -490
0 -702 117 -1230 694 -1279 1397 -32 455 124 876 444 1195 345 346 804 499
1300 434z"/>
<path d="M7545 5266 c-45 -20 -67 -50 -72 -98 -6 -55 27 -108 77 -125 54 -18
1289 -18 1333 1 48 20 69 50 75 105 4 45 2 52 -31 87 l-35 39 -659 2 c-531 2
-664 0 -688 -11z"/>
<path d="M1370 5167 c-45 -16 -80 -68 -80 -119 0 -30 8 -47 34 -76 l34 -37
676 0 676 0 31 31 c64 64 41 172 -41 201 -50 17 -1280 17 -1330 0z"/>
<path d="M7232 4024 c-66 -34 -84 -130 -34 -184 15 -16 275 -173 577 -347 509
-294 554 -318 597 -318 40 0 53 5 79 31 40 41 49 105 21 149 -15 22 -161 112
-580 353 -321 185 -575 325 -594 328 -20 3 -46 -2 -66 -12z"/>
<path d="M2959 3933 c-92 -45 -1094 -631 -1115 -652 -73 -73 -5 -210 98 -198
39 5 1096 609 1154 660 105 91 -11 251 -137 190z"/>
<path d="M6375 3113 c-64 -16 -108 -92 -87 -150 18 -52 643 -1127 665 -1145
80 -63 206 4 194 103 -3 24 -108 216 -312 570 -170 294 -319 549 -333 568 -13
18 -40 39 -58 47 -35 15 -37 15 -69 7z"/>
<path d="M3861 3033 c-17 -16 -173 -275 -348 -578 -293 -508 -317 -554 -318
-597 0 -40 5 -53 31 -79 41 -40 104 -49 149 -21 22 14 110 158 350 573 175
305 323 570 329 589 28 105 -113 187 -193 113z"/>
<path d="M5110 2738 c-20 -14 -40 -38 -47 -58 -15 -45 -18 -1266 -3 -1321 15
-53 50 -81 109 -87 45 -4 52 -2 87 31 l39 35 0 676 0 676 -31 31 c-44 43 -105
50 -154 17z"/>
</g>
</svg>
